# xmcd
#
# Track frame offsets: 
#        150
#        90980
#        161590
#        238565
#        286875
#
# Disc length: 4677 seconds
#
# Revision: 6
# Processed by: cddbd v1.5.2PL0 Copyright (c) Steve Scherf et al.
# Submitted via: ExactAudioCopy v0.99pb5
#
DISCID=33124305
DTITLE=Gov't Mule - Live ... With a Little Help From Our Friends
DYEAR=1999
DGENRE=Hard Blues
TTITLE0=Spanish Moon
TTITLE1=Sad and Deep as You
TTITLE2=Third Stone from the Sun
TTITLE3=Devil Likes It Slow
TTITLE4=Cortez the Killer
EXTD=
EXTT0=
EXTT1=
EXTT2=
EXTT3=
EXTT4=
PLAYORDER=
